<svg id="softrig-logo-black-rgb_header" xmlns="http://www.w3.org/2000/svg" width="108" height="27" viewBox="0 0 108 27">
  <path id="Path_469" data-name="Path 469" d="M56.6,10.9a6.55,6.55,0,0,0-4.5-1.8,7.512,7.512,0,0,0-2.6.5,5.778,5.778,0,0,0-2,1.3,5.968,5.968,0,0,0-1.4,2,6.963,6.963,0,0,0-.5,2.5,6.963,6.963,0,0,0,.5,2.5,5.579,5.579,0,0,0,1.4,2,6.9,6.9,0,0,0,2,1.3,7.01,7.01,0,0,0,5.2,0,5.778,5.778,0,0,0,2-1.3,5.968,5.968,0,0,0,1.4-2,6.963,6.963,0,0,0,.5-2.5,6.963,6.963,0,0,0-.5-2.5,6.183,6.183,0,0,0-1.5-2m-1,6a3.6,3.6,0,0,1-.8,1.2,2.8,2.8,0,0,1-1.2.8,4.013,4.013,0,0,1-1.5.3,3.653,3.653,0,0,1-1.5-.3,3.6,3.6,0,0,1-1.2-.8,4.212,4.212,0,0,1-.8-4.4,3.6,3.6,0,0,1,.8-1.2,2.8,2.8,0,0,1,1.2-.8,3.653,3.653,0,0,1,1.5-.3,3.339,3.339,0,0,1,1.5.3,3.6,3.6,0,0,1,1.2.8,4.212,4.212,0,0,1,.8,4.4"/>
  <path id="Path_470" data-name="Path 470" d="M42.4,13.6a6.079,6.079,0,0,0-1.8-.9c-.7-.2-1.4-.5-2-.7a4.874,4.874,0,0,1-1.1-.4,2.622,2.622,0,0,1-.9-.5l-.6-.6a1.077,1.077,0,0,1-.2-.8,1.419,1.419,0,0,1,.8-1.4,3.146,3.146,0,0,1,2-.5,5.091,5.091,0,0,1,2.2.5,2.178,2.178,0,0,1,.9.7,1.116,1.116,0,0,0,1.6-.1,1.151,1.151,0,0,0-.1-1.7,8.509,8.509,0,0,0-1.4-.9,6.565,6.565,0,0,0-3.2-.7,7.8,7.8,0,0,0-2.2.3,4.608,4.608,0,0,0-1.7.9,3.815,3.815,0,0,0-1.1,1.4A1.909,1.909,0,0,0,33,9.8a3.064,3.064,0,0,0,.4,1.7,2.94,2.94,0,0,0,1,1.2,3.924,3.924,0,0,0,1.4.8c.5.2.9.4,1.4.6a14.242,14.242,0,0,0,1.6.5,7.838,7.838,0,0,0,1.4.5,2.178,2.178,0,0,1,.9.7,2.1,2.1,0,0,1,.4,1.1,1.9,1.9,0,0,1-.8,1.5,3.715,3.715,0,0,1-2.3.6,4.423,4.423,0,0,1-2.4-.7,4.508,4.508,0,0,1-1.4-1,1.244,1.244,0,0,0-1.7.1h0a1.239,1.239,0,0,0,0,1.7,7.844,7.844,0,0,0,2,1.4,8.627,8.627,0,0,0,3.6.8,9.079,9.079,0,0,0,2.3-.3,5.076,5.076,0,0,0,1.8-.9,4.071,4.071,0,0,0,1.2-1.4,3.807,3.807,0,0,0,.4-1.9,4.648,4.648,0,0,0-.5-2.1c-.3-.3-.8-.7-1.3-1.1"/>
  <path id="Path_471" data-name="Path 471" d="M69.5,11.4v6.1a4.844,4.844,0,0,0,.3,1.8,3.6,3.6,0,0,0,.8,1.2,4.184,4.184,0,0,0,1.2.8,3.887,3.887,0,0,0,1.5.2,5.9,5.9,0,0,0,1.4-.2c1.1-.4,1.3-.7,1.1-1.2-.4-.7-.9-1.1-1.7-.9-.1,0-.4.1-.5.1a1.656,1.656,0,0,1-1.2-.5,2.07,2.07,0,0,1-.5-1.5V6.8a1.3,1.3,0,0,0-2.6,0V9.2l.2,2.2Z"/>
  <path id="Path_472" data-name="Path 472" d="M63.6,9.4h0V9a2.139,2.139,0,0,1,.7-1.8,2.5,2.5,0,0,1,2.2-.4.9.9,0,0,0,.9-.2c.8-.7.5-1.5-.5-1.8-.6-.1-1.4-.2-1.4-.2a8.752,8.752,0,0,0-1.6.2,3.924,3.924,0,0,0-1.4.8,3.587,3.587,0,0,0-1,1.4,5.44,5.44,0,0,0-.4,2V19.8a1.391,1.391,0,0,0,1.1,1.4A1.248,1.248,0,0,0,63.7,20V9.4Z"/>
  <path id="Path_473" data-name="Path 473" d="M60,9.4a1.075,1.075,0,0,0-1,1,1.075,1.075,0,0,0,1,1H74.6a1.075,1.075,0,0,0,1-1,1.075,1.075,0,0,0-1-1Z"/>
  <path id="Path_474" data-name="Path 474" d="M92.7,9.4a1.324,1.324,0,0,0-1.3,1.3V20A1.3,1.3,0,0,0,94,20V10.7a1.208,1.208,0,0,0-1.3-1.3"/>
  <path id="Path_475" data-name="Path 475" d="M86.3,15c-.1-.1,0-.2.1-.3a4.353,4.353,0,0,0,2.2-1.5,3.955,3.955,0,0,0,.8-2.7A4.142,4.142,0,0,0,88.1,7a6.375,6.375,0,0,0-4.2-1.2H78.7a1,1,0,0,0-1,1V19.9a1.3,1.3,0,0,0,2.6,0V15.3a.265.265,0,0,1,.3-.3h2.8c.1,0,.2.1.3.2l2.8,5.2a1.548,1.548,0,0,0,1.1.8,1.211,1.211,0,0,0,1.2-1.8Zm-.2-2.6a2.724,2.724,0,0,1-2,.7H80.6a.265.265,0,0,1-.3-.3V8.4a.265.265,0,0,1,.3-.3h3.5a2.724,2.724,0,0,1,2,.7,2.41,2.41,0,0,1,.7,1.8,2.268,2.268,0,0,1-.7,1.8"/>
  <path id="Path_476" data-name="Path 476" d="M92.7,4.6a1.538,1.538,0,0,0-1.5,1.5,1.5,1.5,0,0,0,3,0,1.473,1.473,0,0,0-1.5-1.5"/>
  <path id="Path_477" data-name="Path 477" d="M108,19.4v-9a1.1,1.1,0,1,0-2.2,0v.2h0a6.57,6.57,0,0,0-1.7-1.2,5.558,5.558,0,0,0-2.3-.4,5.867,5.867,0,0,0-2.3.4,5.515,5.515,0,0,0-3,3,5.45,5.45,0,0,0-.5,2.2,5.381,5.381,0,0,0,.4,2.2,5.515,5.515,0,0,0,3,3,5.867,5.867,0,0,0,2.3.4,4.638,4.638,0,0,0,2.1-.4,3.858,3.858,0,0,0,1.7-1.1v.9a3.339,3.339,0,0,1-.3,1.5,3.056,3.056,0,0,1-2,1.6,6.753,6.753,0,0,1-1.4.2,6.042,6.042,0,0,1-2.4-.5,10.539,10.539,0,0,1-1.1-.7,1.088,1.088,0,0,0-1.5,0,1.007,1.007,0,0,0,.1,1.5,4.545,4.545,0,0,0,1.7,1.1,7.808,7.808,0,0,0,5.7.3,6.256,6.256,0,0,0,2-1,5.936,5.936,0,0,0,1.3-1.8,5.2,5.2,0,0,0,.4-2.4m-2.3-4.7a6.753,6.753,0,0,1-.2,1.4,4.129,4.129,0,0,1-.7,1.1,4.129,4.129,0,0,1-1.1.7,3.178,3.178,0,0,1-1.4.2,3.622,3.622,0,0,1-2.6-1,3.328,3.328,0,0,1-.9-2.6,6.753,6.753,0,0,1,.2-1.4,4.129,4.129,0,0,1,.7-1.1,4.129,4.129,0,0,1,1.1-.7,3.178,3.178,0,0,1,1.4-.2,5.9,5.9,0,0,1,1.4.2,4.129,4.129,0,0,1,1.1.7,4.129,4.129,0,0,1,.7,1.1,4.973,4.973,0,0,1,.3,1.6"/>
  <path id="Path_478" data-name="Path 478" d="M7.8,9.4a1.084,1.084,0,0,0,1.1.8h9.3a3.289,3.289,0,0,1,3.3,3.4,3.47,3.47,0,0,1-3.4,3.2H6.8a1.1,1.1,0,0,1,0-2.2H18.1a1.186,1.186,0,0,0,1.1-1.5,1.084,1.084,0,0,0-1.1-.8H8.8A3.289,3.289,0,0,1,5.5,8.9,3.492,3.492,0,0,1,9,5.7H20.2a1.1,1.1,0,1,1,0,2.2H8.8a1.148,1.148,0,0,0-1,1.5M5.7,20.1A1.11,1.11,0,0,1,6.8,19H20.1a1.1,1.1,0,0,1,0,2.2H6.8a1,1,0,0,1-1.1-1.1M27,24V3a2.946,2.946,0,0,0-3-3H3A2.946,2.946,0,0,0,0,3V24a2.946,2.946,0,0,0,3,3H24a3.009,3.009,0,0,0,3-3"/>
</svg>
