<svg xmlns="http://www.w3.org/2000/svg" width="185.709" height="31.486" viewBox="0 0 185.709 31.486"><g opacity="0.997"><path d="M286.67,37.737l3.8-8.317L283.7,15.4h4.277l4.574,10.04,4.277-10.04h4.04l-10.1,22.337Z" transform="translate(-115.16 -6.251)" fill="#0070e0"/><path d="M239.8,30.99V15.069h3.624v2.02a5.477,5.477,0,0,1,4.693-2.5,4.977,4.977,0,0,1,4.753,2.792,5.584,5.584,0,0,1,5.168-2.792c2.852,0,5.644,1.842,5.644,6.06V30.99H260V21.247c0-1.842-.951-3.267-3.089-3.267a3.293,3.293,0,0,0-3.327,3.505V30.93H249.84V21.247c0-1.842-.891-3.267-3.089-3.267a3.261,3.261,0,0,0-3.327,3.505V30.93H239.8Z" transform="translate(-97.34 -5.92)" fill="#0070e0"/><path d="M222.315,23.036a8.259,8.259,0,1,1-16.515,0,8.259,8.259,0,1,1,16.515,0Zm-3.8,0c0-3.327-2.079-4.99-4.456-4.99-2.317,0-4.456,1.723-4.456,4.99,0,3.327,2.139,5.05,4.456,5.05,2.376,0,4.456-1.723,4.456-5.05Z" transform="translate(-83.539 -5.926)" fill="#0070e0"/><path d="M179.9,31.034h-3.8V15.113h3.683v2.139a5.222,5.222,0,0,1,4.693-2.555c3.861,0,5.762,2.792,5.762,6.3v10.04h-3.8V21.589c0-1.96-.891-3.505-3.267-3.505-2.139,0-3.327,1.663-3.327,3.743v9.208Z" transform="translate(-71.482 -5.964)" fill="#0070e0"/><path d="M158.615,23.036a8.259,8.259,0,1,1-16.515,0,8.259,8.259,0,1,1,16.515,0Zm-3.861,0c0-3.327-2.079-4.99-4.456-4.99-2.317,0-4.456,1.723-4.456,4.99,0,3.327,2.139,5.05,4.456,5.05C152.674,28.085,154.754,26.363,154.754,23.036Z" transform="translate(-57.682 -5.926)" fill="#0070e0"/><path d="M115.7,23.036c0,3.208,2.079,4.99,4.456,4.99a4,4,0,0,0,3.98-2.911l3.327,1.188a7.371,7.371,0,0,1-7.307,5.168,8.172,8.172,0,0,1-8.258-8.436,8.112,8.112,0,0,1,8.139-8.436,7.138,7.138,0,0,1,7.307,5.228l-3.386,1.248a3.713,3.713,0,0,0-3.861-2.97C117.781,18.105,115.7,19.828,115.7,23.036Z" transform="translate(-45.422 -5.926)" fill="#0070e0"/><path d="M96.627,26.381a7.167,7.167,0,0,1-7.188,5.05c-4.337,0-8.139-3.149-8.139-8.555,0-5.05,3.743-8.376,7.723-8.376,4.871,0,7.782,3.208,7.782,8.258a3.8,3.8,0,0,1-.119,1.188H85.1A4.284,4.284,0,0,0,89.439,28.1a3.839,3.839,0,0,0,3.98-2.792ZM93,21.213a3.556,3.556,0,0,0-3.921-3.505,3.8,3.8,0,0,0-3.861,3.505Z" transform="translate(-33.002 -5.886)" fill="#0070e0"/><path d="M65.933,4.812A2.6,2.6,0,0,1,63.2,2.376,2.517,2.517,0,0,1,65.933,0a2.592,2.592,0,0,1,2.733,2.376,2.639,2.639,0,0,1-2.733,2.436ZM63.378,25.07V7.426h5.05V25.01h-5.05Z" transform="translate(-25.654)" fill="#123f9a"/><path d="M41.38,29.978V18.038c0-1.9-.832-2.852-2.852-2.852a5.329,5.329,0,0,0-2.02.356V29.978H31.4V13.344A18.647,18.647,0,0,1,38.529,12.1c5.525,0,7.961,2.257,7.961,6.06V30.038H41.38Z" transform="translate(-12.746 -4.909)" fill="#123f9a"/><path d="M7.664,30.5C2.555,30.5,0,28.6,0,24.263V12.5H5.109v12a2.284,2.284,0,0,0,2.614,2.555,5.315,5.315,0,0,0,2.02-.416V12.5h5.109V29.134A18.877,18.877,0,0,1,7.664,30.5Z" transform="translate(0 -5.074)" fill="#123f9a"/></g></svg>