<svg xmlns="http://www.w3.org/2000/svg" width="150.069" height="29" viewBox="0 0 150.069 29"><path d="M16.243,23.939a38.2,38.2,0,0,1-5.977.4c-3.443,0-6.02-.57-7.709-1.69C.845,21.531,0,19.693,0,17.138V4.19H7.857V17.644a2.1,2.1,0,0,0,.549,1.436,2.57,2.57,0,0,0,1.964.591,7.851,7.851,0,0,0,1.31-.084,3.876,3.876,0,0,0,.95-.275V4.19h7.857V22.862A19.3,19.3,0,0,1,16.243,23.939Z" transform="translate(0 4.66)" fill="#123f9a"/><path d="M24.433,24.091V10.531A1.978,1.978,0,0,0,23.652,8.8a3.621,3.621,0,0,0-2.154-.57,6.276,6.276,0,0,0-1.141.084c-.359.063-.655.127-.929.19V24.07H11.57V5.42a22.633,22.633,0,0,1,4.393-1.077,36.474,36.474,0,0,1,5.7-.422c3.7,0,6.379.549,8.09,1.626a5.382,5.382,0,0,1,2.556,4.9V24.091H24.433Z" transform="translate(12.868 4.36)" fill="#123f9a"/><path d="M31.578,3.168a2.406,2.406,0,0,1-.338,1.246,3.115,3.115,0,0,1-.908.993,5.061,5.061,0,0,1-1.352.676,5.142,5.142,0,0,1-1.626.253,5.275,5.275,0,0,1-1.647-.253,4.923,4.923,0,0,1-1.331-.676,3.045,3.045,0,0,1-.887-.993,2.562,2.562,0,0,1-.338-1.246,2.406,2.406,0,0,1,.338-1.246,3.045,3.045,0,0,1,.887-.993A4.923,4.923,0,0,1,25.706.253,5.18,5.18,0,0,1,27.353,0,5.048,5.048,0,0,1,28.98.253a5.4,5.4,0,0,1,1.352.676,3.115,3.115,0,0,1,.908.993A2.626,2.626,0,0,1,31.578,3.168ZM23.446,28.451V8.85H31.3V28.472H23.446Z" transform="translate(25.747 0)" fill="#123f9a"/><path d="M56.114,24.047V9.684c0-2.176-1.605-4.372-5.449-4.372a8.345,8.345,0,0,0-5.893,2.176V24.047H42.808V9.494c0-2.471-2.176-4.182-6.083-4.182a14.152,14.152,0,0,0-5.28.845V24.068H29.48V5.312A19.9,19.9,0,0,1,36.873,3.96c3.485,0,5.6.95,7.012,2.556A10.094,10.094,0,0,1,50.918,3.96c5.555,0,7.16,3.274,7.16,5.639V24.047Z" transform="translate(32.787 4.404)" fill="#123f9a"/><path d="M47.025,3.77A1.389,1.389,0,0,1,45.61,2.355a1.415,1.415,0,1,1,2.83,0A1.4,1.4,0,0,1,47.025,3.77Zm-.993,23.635V7.8H48V27.427H46.032Z" transform="translate(50.726 1.045)" fill="#123f9a"/><path d="M57.852,24.532c-4.921,0-8.7-4.076-8.7-10.265,0-6.358,3.717-10.307,8.871-10.307a8.328,8.328,0,0,1,5.027,1.352l-.613,1.246A7.675,7.675,0,0,0,58.4,5.439c-4.837,0-7.245,3.823-7.245,8.7,0,5.09,2.809,8.85,7.139,8.85a7.988,7.988,0,0,0,4.076-1.119l.7,1.352A9.732,9.732,0,0,1,57.852,24.532Z" transform="translate(54.663 4.404)" fill="#123f9a"/><path d="M66.335,5.65c-2.07-.444-5.238-.338-6.611.549V24.068H57.76V5.312A20.1,20.1,0,0,1,65.871,3.96c.359,0,.866.042,1.141.042Z" transform="translate(64.239 4.404)" fill="#123f9a"/><path d="M71.512,24.532c-6.1,0-8.7-4.541-8.7-10.265,0-5.7,2.577-10.307,8.7-10.307,6.1,0,8.7,4.583,8.7,10.307C80.214,19.97,77.637,24.532,71.512,24.532Zm0-19.221c-5.2,0-6.738,4.773-6.738,8.977s1.647,8.765,6.738,8.765c5.2,0,6.738-4.541,6.738-8.765S76.729,5.312,71.512,5.312Z" transform="translate(69.855 4.404)" fill="#123f9a"/></svg>