<svg xmlns="http://www.w3.org/2000/svg" width="79.345" height="26" viewBox="0 0 79.345 26">
  <g id="logo_uni_v3" transform="translate(0 0.1)">
    <path id="Path_198_2_" d="M7.82,33.529C2.59,33.529,0,31.587,0,27.154V15.2H5.18V27.4a2.311,2.311,0,0,0,2.64,2.59,4.872,4.872,0,0,0,2.042-.448V15.2h5.18V32.135A18.653,18.653,0,0,1,7.82,33.529Z" transform="translate(0 -7.679)" fill="#123f9a"/>
    <path id="Path_199_2_" d="M48.261,32.876v-12.2c0-1.943-.847-2.889-2.889-2.889a5.683,5.683,0,0,0-2.042.349V32.826H38.1V15.891a19,19,0,0,1,7.272-1.3c5.628.05,8.119,2.341,8.119,6.226v12.1h-5.23Z" transform="translate(-19.123 -7.374)" fill="#123f9a"/>
    <path id="Path_200_2_" d="M79.589,4.831A2.66,2.66,0,0,1,76.8,2.341,2.57,2.57,0,0,1,79.589-.1a2.664,2.664,0,0,1,2.789,2.441A2.656,2.656,0,0,1,79.589,4.831ZM76.949,25.5V7.521h5.13V25.452h-5.13Z" transform="translate(-38.547)" fill="#123f9a"/>
    <path id="Path_9225" data-name="Path 9225" d="M101.135,15.1l4.782,12.1L110.7,15.1h3.835l-7.621,17.981h-2.092L97.3,15.1Z" transform="translate(-48.836 -7.629)" fill="#0f644e"/>
    <path id="Path_9226" data-name="Path 9226" d="M134.147,19.38c.349-3.287,2.789-5.08,5.877-5.08,3.437,0,5.628,1.943,5.628,4.981a4.078,4.078,0,0,1-2.092,3.785A4.336,4.336,0,0,1,146.3,27.35c0,3.686-2.839,5.778-6.425,5.778-3.437,0-6.176-2.142-6.475-5.579h3.487a2.8,2.8,0,0,0,2.988,2.54,2.722,2.722,0,0,0,2.889-2.839,2.689,2.689,0,0,0-2.988-2.789h-.448v-2.54h.5a2.268,2.268,0,0,0,2.441-2.441,2.248,2.248,0,0,0-2.391-2.391,2.394,2.394,0,0,0-2.49,2.341h-3.238Z" transform="translate(-66.955 -7.228)" fill="#0f644e"/>
  </g>
</svg>
